<?xml version="1.0" encoding="UTF-8"?>
<svg id="Layer_2" data-name="Layer 2" xmlns="http://www.w3.org/2000/svg" viewBox="0 0 344.42 126.35">
  <defs>
    <style>
      .cls-1 {
        fill: none;
      }

      .cls-1, .cls-2, .cls-3, .cls-4 {
        stroke-width: 0px;
      }

      .cls-2 {
        fill: #454749;
      }

      .cls-3 {
        fill: #48c8f0;
      }

      .cls-4 {
        fill: #828588;
      }
    </style>
  </defs>
  <g id="Layer_2-2" data-name="Layer 2">
    <g>
      <rect class="cls-4" x="16.06" y="29.29" width="33.53" height="50.47"/>
      <rect class="cls-4" x="53.68" y="15" width="33.53" height="64.76"/>
      <rect class="cls-3" x="91.06" width="33.53" height="79.76"/>
      <path class="cls-2" d="m41.12,103.06H0c1.06-.88,16.06-23.29,16.06-23.29h33.53s-8.47,23.29-8.47,23.29Z"/>
      <polygon class="cls-2" points="98.15 117.35 41.5 117.35 53.68 79.76 87.21 79.76 98.15 117.35"/>
      <polygon class="cls-2" points="106.82 126.35 157.59 126.35 124.59 79.76 91.06 79.76 106.82 126.35"/>
    </g>
    <rect class="cls-1" width="334.13" height="126.35"/>
    <g>
      <path class="cls-4" d="m176.69,64.33c-.47-.2-.91-.45-1.31-.76-.4-.3-.83-.71-1.26-1.21-1.78-2.05-3.64-4.22-5.58-6.51-1.94-2.29-3.89-4.6-5.86-6.92-1.97-2.32-3.92-4.62-5.86-6.89-1.94-2.27-3.78-4.45-5.53-6.54-.4-.4-.91-.61-1.51-.61-.54,0-1.02.13-1.44.4-.42.27-.65.69-.68,1.26v28.18h-5.5v-28.58l.05-.15c.07-1.04.33-1.99.78-2.83s1.04-1.55,1.77-2.12c.72-.57,1.53-1.01,2.42-1.31.89-.3,1.79-.45,2.7-.45,1.08,0,2.11.21,3.11.63.99.42,1.86,1.12,2.6,2.1,3.8,4.48,7.59,8.94,11.36,13.38,3.77,4.44,7.57,8.92,11.41,13.43.17.17.4.32.68.45.29.14.56.2.83.2.47,0,.91-.15,1.31-.45.4-.3.66-.71.76-1.21v-28.18h5.55v28.58c-.1,1.04-.39,1.99-.86,2.83-.47.84-1.05,1.57-1.74,2.17-.69.61-1.47,1.07-2.35,1.39-.88.32-1.78.48-2.73.48-.51,0-1.04-.06-1.59-.18-.56-.12-1.07-.31-1.54-.58Z"/>
      <path class="cls-4" d="m205.57,37.87c-.81.84-1.45,1.8-1.92,2.88-.47,1.08-.71,2.24-.71,3.48v.25h37.87v5.55h-37.87v.25c0,1.21.24,2.36.71,3.43.47,1.08,1.12,2.02,1.94,2.83.82.81,1.78,1.45,2.88,1.92,1.09.47,2.25.71,3.46.71h28.88v5.55h-28.88c-2.02,0-3.91-.39-5.68-1.16-1.77-.77-3.31-1.82-4.62-3.13-1.31-1.31-2.35-2.85-3.11-4.62s-1.14-3.64-1.14-5.63v-5.96c0-2.02.39-3.9,1.16-5.66.77-1.75,1.82-3.28,3.13-4.6s2.85-2.35,4.62-3.11c1.77-.76,3.64-1.14,5.63-1.14h28.88v5.5h-28.88c-1.28,0-2.46.24-3.53.71-1.08.47-2.02,1.11-2.83,1.92Z"/>
      <path class="cls-3" d="m256.62,64.74h-5.5V29.79h34.99c1.48,0,2.89.29,4.24.86,1.35.57,2.53,1.36,3.53,2.35,1.01.99,1.82,2.15,2.42,3.46s.91,2.71.91,4.19-.31,2.93-.93,4.24-1.46,2.47-2.5,3.46c-1.04.99-2.26,1.77-3.64,2.32-1.38.56-2.81.83-4.29.83h-29.24v13.23Zm29.34-18.63c.77,0,1.51-.14,2.2-.43.69-.29,1.29-.67,1.82-1.16.52-.49.95-1.06,1.29-1.72.34-.66.52-1.37.56-2.15-.03-.74-.22-1.44-.56-2.1-.34-.66-.77-1.23-1.31-1.72-.54-.49-1.16-.87-1.87-1.16-.71-.29-1.45-.43-2.22-.43h-29.24v10.86h29.34Z"/>
      <path class="cls-3" d="m306.46,64.74V29.74h5.55v34.99h-5.55Z"/>
      <g>
        <path class="cls-2" d="m146.23,79.65c-.07-.03-.13-.06-.18-.11-.06-.04-.11-.1-.18-.17-.25-.29-.51-.59-.78-.91-.27-.32-.54-.64-.81-.96-.27-.32-.55-.64-.81-.96-.27-.32-.53-.62-.77-.91-.06-.06-.13-.08-.21-.08-.08,0-.14.02-.2.06-.06.04-.09.1-.09.18v3.92h-.77v-4c.02-.15.05-.28.12-.39.06-.12.15-.22.25-.3s.21-.14.34-.18c.12-.04.25-.06.38-.06.15,0,.29.03.43.09.14.06.26.16.36.29.53.62,1.06,1.24,1.58,1.86.52.62,1.05,1.24,1.59,1.87.02.02.06.04.09.06.04.02.08.03.12.03.07,0,.13-.02.18-.06.06-.04.09-.1.11-.17v-3.92h.77v3.97c-.01.15-.05.28-.12.39-.07.12-.15.22-.24.3-.1.08-.21.15-.33.19s-.25.07-.38.07c-.07,0-.14,0-.22-.02s-.15-.04-.21-.08Z"/>
        <path class="cls-2" d="m151.14,79.71c-.28,0-.54-.05-.79-.16s-.46-.25-.64-.43c-.18-.18-.33-.4-.43-.64s-.16-.51-.16-.79v-.83c0-.28.05-.54.16-.78.11-.25.25-.46.43-.64s.4-.33.64-.43c.25-.11.51-.16.79-.16h3.41c.28,0,.54.05.79.16.25.1.46.25.64.43s.33.4.43.64c.11.25.16.51.16.78v.83c0,.28-.05.54-.16.79s-.25.46-.43.64c-.18.18-.4.33-.64.43s-.51.16-.79.16h-3.41Zm-1.25-2.02c0,.17.03.34.1.49.07.15.15.28.27.4s.24.2.4.27c.15.07.31.1.49.1h3.41c.17,0,.34-.03.49-.1.15-.07.29-.15.4-.27.11-.11.2-.24.27-.4s.1-.31.1-.49v-.83c0-.17-.03-.33-.1-.48-.07-.15-.16-.29-.27-.4s-.25-.21-.4-.27c-.15-.07-.31-.1-.49-.1h-3.41c-.17,0-.34.03-.49.1-.15.07-.28.16-.4.27-.11.11-.2.25-.27.4-.07.15-.1.31-.1.48v.83Z"/>
        <path class="cls-2" d="m163.86,77.47c-.09.09-.19.17-.31.24-.12.06-.24.11-.37.15.11.15.22.3.34.46.12.16.24.32.36.48.12.16.24.32.36.48.12.16.23.3.33.44h-.97l-1.33-1.78h-3.7v1.78h-.77v-4.87h4.93c.33,0,.62.08.88.25.22.14.4.32.53.54.13.23.2.47.2.74,0,.22-.04.42-.13.6s-.2.35-.36.49h0Zm-5.29-.32h4.19c.11,0,.21-.02.31-.06s.19-.09.26-.16c.07-.07.13-.15.18-.25s.07-.19.07-.3-.02-.21-.07-.3-.11-.18-.19-.25c-.08-.07-.17-.13-.27-.16s-.21-.06-.32-.06h-4.16v1.54Z"/>
        <path class="cls-2" d="m170.98,75.61h-2.63v4.1h-.77v-4.1h-2.63v-.77h6.02v.77Z"/>
        <path class="cls-2" d="m177.97,74.84v4.87h-.78v-2.23h-4.36v2.23h-.77v-4.87h.77v1.87h4.36v-1.87h.78Z"/>
        <path class="cls-2" d="m182.96,75.97c-.11.12-.2.25-.27.4s-.1.31-.1.48v.03h5.27v.77h-5.27v.04c0,.17.03.33.1.48s.16.28.27.39.25.2.4.27c.15.07.31.1.48.1h4.02v.77h-4.02c-.28,0-.54-.05-.79-.16-.25-.11-.46-.25-.64-.44-.18-.18-.33-.4-.43-.64-.1-.25-.16-.51-.16-.78v-.83c0-.28.05-.54.16-.79.11-.24.25-.46.44-.64.18-.18.4-.33.64-.43.25-.11.51-.16.78-.16h4.02v.77h-4.02c-.18,0-.34.03-.49.1-.15.07-.28.15-.39.27Z"/>
        <path class="cls-2" d="m194.96,75.43c.18.19.33.4.44.65.11.24.16.5.16.78v2.85h-.77v-2.11h-4.75v2.11h-.77v-2.85c0-.28.05-.54.16-.79.11-.24.25-.46.44-.64.18-.18.4-.33.64-.43.24-.11.5-.16.78-.16h2.25c.28,0,.54.05.78.16.24.1.46.25.65.43Zm-3.69.18c-.16,0-.32.03-.47.1-.15.07-.28.15-.39.26-.11.11-.2.24-.27.39-.07.15-.1.3-.11.47h4.75c0-.16-.04-.32-.11-.47-.07-.15-.16-.28-.27-.39-.11-.11-.24-.2-.39-.26-.15-.07-.31-.1-.48-.1h-2.26Z"/>
        <path class="cls-2" d="m196.72,79.71v-.77h4.53c.09,0,.17-.02.25-.05.08-.03.14-.08.2-.14s.1-.13.13-.2c.03-.08.05-.16.05-.25,0-.18-.06-.33-.18-.45s-.27-.19-.45-.19h-3.37c-.19,0-.37-.04-.54-.11-.17-.07-.32-.17-.45-.3-.13-.13-.23-.28-.31-.45-.07-.17-.11-.35-.11-.55s.04-.38.11-.55c.07-.17.17-.32.3-.45s.28-.23.45-.31.35-.11.55-.11h4.52v.77h-4.52c-.18,0-.33.06-.45.19-.11.12-.18.27-.19.45.01.19.08.34.2.47.12.13.27.19.44.19h3.37c.19,0,.37.04.54.11.17.08.32.18.45.3.13.13.23.27.3.45.08.17.11.35.11.54s-.04.38-.11.55c-.07.17-.17.32-.3.45s-.28.23-.45.3-.35.11-.55.11h-4.53Z"/>
        <path class="cls-2" d="m209.09,75.61h-2.63v4.1h-.77v-4.1h-2.63v-.77h6.02v.77Z"/>
        <path class="cls-2" d="m213.8,79.71h-.77v-4.86h4.87c.21,0,.4.04.59.12.19.08.35.19.49.33.14.14.25.3.34.48.08.18.13.38.13.58s-.04.41-.13.59c-.09.18-.2.34-.35.48-.15.14-.31.25-.51.32s-.39.12-.6.12h-4.07v1.84Zm4.08-2.59c.11,0,.21-.02.31-.06.1-.04.18-.09.25-.16.07-.07.13-.15.18-.24.05-.09.07-.19.08-.3,0-.1-.03-.2-.08-.29s-.11-.17-.18-.24c-.07-.07-.16-.12-.26-.16-.1-.04-.2-.06-.31-.06h-4.07v1.51h4.08Z"/>
        <path class="cls-2" d="m226.81,77.47c-.09.09-.19.17-.31.24-.12.06-.24.11-.36.15.11.15.22.3.34.46.12.16.24.32.36.48.12.16.24.32.36.48.12.16.23.3.33.44h-.97l-1.33-1.78h-3.7v1.78h-.77v-4.87h4.93c.33,0,.62.08.88.25.22.14.4.32.53.54.13.23.2.47.2.74,0,.22-.04.42-.13.6-.08.18-.2.35-.36.49h0Zm-5.29-.32h4.18c.11,0,.21-.02.31-.06s.19-.09.26-.16c.07-.07.13-.15.18-.25s.07-.19.07-.3-.02-.21-.07-.3c-.05-.09-.11-.18-.19-.25-.08-.07-.17-.13-.27-.16s-.21-.06-.32-.06h-4.16v1.54Z"/>
        <path class="cls-2" d="m230.39,79.71c-.28,0-.54-.05-.79-.16-.25-.11-.46-.25-.64-.43-.18-.18-.33-.4-.43-.64-.11-.25-.16-.51-.16-.79v-.83c0-.28.05-.54.16-.78.1-.25.25-.46.43-.64.18-.18.4-.33.64-.43.24-.11.51-.16.79-.16h3.41c.28,0,.54.05.79.16.25.1.46.25.64.43.18.18.33.4.43.64.1.25.16.51.16.78v.83c0,.28-.05.54-.16.79s-.25.46-.43.64c-.18.18-.4.33-.64.43s-.51.16-.79.16h-3.41Zm-1.25-2.02c0,.17.03.34.1.49s.15.28.27.4.24.2.4.27c.15.07.32.1.49.1h3.41c.17,0,.34-.03.49-.1.15-.07.29-.15.4-.27s.2-.24.27-.4.1-.31.1-.49v-.83c0-.17-.03-.33-.1-.48-.07-.15-.16-.29-.27-.4-.11-.11-.25-.21-.4-.27-.15-.07-.31-.1-.49-.1h-3.41c-.17,0-.34.03-.49.1-.15.07-.28.16-.4.27-.11.11-.2.25-.27.4-.07.15-.1.31-.1.48v.83Z"/>
        <path class="cls-2" d="m237.9,79.71h-.77v-4.86h4.87c.21,0,.4.04.59.12.19.08.35.19.49.33.14.14.25.3.34.48.08.18.13.38.13.58s-.04.41-.13.59c-.09.18-.2.34-.35.48-.15.14-.31.25-.51.32s-.39.12-.6.12h-4.07v1.84Zm4.08-2.59c.11,0,.21-.02.31-.06.1-.04.18-.09.25-.16.07-.07.13-.15.18-.24.05-.09.07-.19.08-.3,0-.1-.03-.2-.08-.29s-.11-.17-.18-.24c-.07-.07-.16-.12-.26-.16-.1-.04-.2-.06-.31-.06h-4.07v1.51h4.08Z"/>
        <path class="cls-2" d="m246.06,75.97c-.11.12-.2.25-.27.4s-.1.31-.1.48v.03h5.27v.77h-5.27v.04c0,.17.03.33.1.48s.16.28.27.39.25.2.4.27c.15.07.31.1.48.1h4.02v.77h-4.02c-.28,0-.54-.05-.79-.16-.25-.11-.46-.25-.64-.44-.18-.18-.33-.4-.43-.64-.1-.25-.16-.51-.16-.78v-.83c0-.28.05-.54.16-.79.11-.24.25-.46.44-.64.18-.18.4-.33.64-.43.25-.11.51-.16.78-.16h4.02v.77h-4.02c-.18,0-.34.03-.49.1-.15.07-.28.15-.39.27Z"/>
        <path class="cls-2" d="m258.37,77.47c-.09.09-.19.17-.31.24-.12.06-.24.11-.36.15.11.15.22.3.34.46.12.16.24.32.36.48.12.16.24.32.36.48.12.16.23.3.33.44h-.97l-1.33-1.78h-3.7v1.78h-.77v-4.87h4.93c.33,0,.62.08.88.25.22.14.4.32.53.54.13.23.2.47.2.74,0,.22-.04.42-.13.6-.08.18-.2.35-.36.49h0Zm-5.29-.32h4.18c.11,0,.21-.02.31-.06s.19-.09.26-.16c.07-.07.13-.15.18-.25s.07-.19.07-.3-.02-.21-.07-.3c-.05-.09-.11-.18-.19-.25-.08-.07-.17-.13-.27-.16s-.21-.06-.32-.06h-4.16v1.54Z"/>
        <path class="cls-2" d="m265.49,75.61h-2.63v4.1h-.77v-4.1h-2.63v-.77h6.02v.77Z"/>
        <path class="cls-2" d="m269.31,79.71v-1.46h-.58c-.28,0-.54-.05-.79-.16-.24-.11-.46-.25-.64-.43-.19-.19-.33-.4-.44-.65-.11-.24-.16-.51-.16-.79v-1.38h.77v1.38c0,.17.03.33.1.48s.15.29.27.4c.11.11.24.2.39.27s.31.1.48.1h1.89c.17,0,.33-.03.48-.1.15-.07.29-.15.4-.27.12-.11.21-.24.27-.39.06-.15.1-.31.1-.48v-1.4h.77v1.38c0,.28-.05.54-.16.79-.1.24-.25.46-.44.65-.18.18-.4.33-.64.43s-.51.16-.79.16h-.53v1.46h-.77Z"/>
        <path class="cls-2" d="m276.47,79.71v-4.87h.77v4.87h-.77Z"/>
        <path class="cls-2" d="m283.19,79.65c-.07-.03-.13-.06-.18-.11-.06-.04-.12-.1-.18-.17-.25-.29-.51-.59-.78-.91-.27-.32-.54-.64-.81-.96-.27-.32-.55-.64-.81-.96-.27-.32-.53-.62-.77-.91-.06-.06-.13-.08-.21-.08-.08,0-.14.02-.2.06-.06.04-.09.1-.09.18v3.92h-.77v-4c.02-.15.05-.28.12-.39.06-.12.15-.22.25-.3s.21-.14.34-.18c.12-.04.25-.06.38-.06.15,0,.29.03.43.09.14.06.26.16.36.29.53.62,1.06,1.24,1.58,1.86s1.05,1.24,1.59,1.87c.02.02.06.04.09.06.04.02.08.03.12.03.07,0,.13-.02.18-.06.06-.04.09-.1.1-.17v-3.92h.77v3.97c-.01.15-.05.28-.12.39-.07.12-.15.22-.24.3-.1.08-.21.15-.33.19-.12.04-.25.07-.38.07-.07,0-.14,0-.22-.02s-.15-.04-.21-.08Z"/>
        <path class="cls-2" d="m289.08,79.71l-3.6-4.86h.94l2.86,3.88c.48-.63.97-1.27,1.45-1.94s.97-1.31,1.44-1.94h.95l-3.64,4.86h-.4Z"/>
        <path class="cls-2" d="m295.44,75.97c-.11.12-.2.25-.27.4s-.1.31-.1.48v.03h5.27v.77h-5.27v.04c0,.17.03.33.1.48s.16.28.27.39.25.2.4.27c.15.07.31.1.48.1h4.02v.77h-4.02c-.28,0-.54-.05-.79-.16-.25-.11-.46-.25-.64-.44-.18-.18-.33-.4-.43-.64-.1-.25-.16-.51-.16-.78v-.83c0-.28.05-.54.16-.79.11-.24.25-.46.44-.64.18-.18.4-.33.64-.43.25-.11.51-.16.78-.16h4.02v.77h-4.02c-.18,0-.34.03-.49.1-.15.07-.28.15-.39.27Z"/>
        <path class="cls-2" d="m301.67,79.71v-.77h4.53c.09,0,.17-.02.25-.05.08-.03.14-.08.2-.14s.1-.13.13-.2c.03-.08.05-.16.05-.25,0-.18-.06-.33-.18-.45s-.27-.19-.45-.19h-3.37c-.19,0-.37-.04-.54-.11-.17-.07-.32-.17-.45-.3-.13-.13-.23-.28-.31-.45-.07-.17-.11-.35-.11-.55s.04-.38.11-.55c.07-.17.17-.32.3-.45s.28-.23.45-.31.35-.11.55-.11h4.52v.77h-4.52c-.18,0-.33.06-.45.19-.11.12-.18.27-.19.45.01.19.08.34.2.47.12.13.27.19.44.19h3.37c.19,0,.37.04.54.11.17.08.32.18.45.3.13.13.23.27.3.45.08.17.11.35.11.54s-.04.38-.11.55c-.07.17-.17.32-.3.45s-.28.23-.45.3-.35.11-.55.11h-4.53Z"/>
        <path class="cls-2" d="m314.05,75.61h-2.63v4.1h-.77v-4.1h-2.63v-.77h6.02v.77Z"/>
        <path class="cls-2" d="m321.88,79.7v-3.87c0-.07-.03-.13-.09-.16-.06-.04-.12-.06-.16-.06h-.06s-.1.02-.15.06-.1.09-.12.15l-.2.41c-.05.11-.12.24-.19.4-.08.16-.17.36-.28.59-.11.23-.24.51-.4.83-.15.32-.33.69-.53,1.11-.03.07-.07.13-.11.2-.04.07-.09.12-.14.18s-.11.09-.18.13c-.07.03-.13.05-.2.05h-.11c-.18,0-.31-.06-.41-.14-.09-.09-.18-.22-.27-.4l-1.6-3.36c-.03-.06-.05-.1-.07-.12-.02-.02-.04-.05-.08-.07-.03,0-.06-.01-.1-.01h-.08c-.06,0-.11.02-.17.07s-.08.1-.08.15v3.87h-.77v-3.9c0-.12.03-.24.08-.35.05-.11.13-.21.22-.3.09-.09.2-.16.32-.21.12-.05.24-.09.38-.09h.11c.14,0,.26.01.37.06.06.02.11.05.17.09s.11.09.17.14c.05.05.1.1.14.16.04.05.07.1.08.14l.04.09c.27.56.53,1.11.79,1.67.26.56.53,1.11.79,1.67v.03s1.63-3.38,1.63-3.38c.05-.1.11-.2.19-.31.08-.11.18-.19.29-.25.07-.03.14-.06.22-.08s.16-.03.24-.03h.1c.12,0,.24.04.36.09.12.06.22.13.32.22.09.09.17.19.23.31.06.11.09.22.09.33v3.91h-.77Z"/>
        <path class="cls-2" d="m325.03,75.97c-.11.12-.2.25-.27.4s-.1.31-.1.48v.03h5.27v.77h-5.27v.04c0,.17.03.33.1.48s.16.28.27.39.25.2.4.27c.15.07.31.1.48.1h4.02v.77h-4.02c-.28,0-.54-.05-.79-.16-.25-.11-.46-.25-.64-.44-.18-.18-.33-.4-.43-.64-.1-.25-.16-.51-.16-.78v-.83c0-.28.05-.54.16-.79.11-.24.25-.46.44-.64.18-.18.4-.33.64-.43.25-.11.51-.16.78-.16h4.02v.77h-4.02c-.18,0-.34.03-.49.1-.15.07-.28.15-.39.27Z"/>
        <path class="cls-2" d="m336.15,79.65c-.07-.03-.13-.06-.18-.11-.06-.04-.12-.1-.18-.17-.25-.29-.51-.59-.78-.91-.27-.32-.54-.64-.81-.96-.27-.32-.55-.64-.81-.96-.27-.32-.53-.62-.77-.91-.06-.06-.13-.08-.21-.08-.08,0-.14.02-.2.06-.06.04-.09.1-.09.18v3.92h-.77v-4c.02-.15.05-.28.12-.39.06-.12.15-.22.25-.3s.21-.14.34-.18c.12-.04.25-.06.38-.06.15,0,.29.03.43.09.14.06.26.16.36.29.53.62,1.06,1.24,1.58,1.86s1.05,1.24,1.59,1.87c.02.02.06.04.09.06.04.02.08.03.12.03.07,0,.13-.02.18-.06.06-.04.09-.1.1-.17v-3.92h.77v3.97c-.01.15-.05.28-.12.39-.07.12-.15.22-.24.3-.1.08-.21.15-.33.19-.12.04-.25.07-.38.07-.07,0-.14,0-.22-.02s-.15-.04-.21-.08Z"/>
        <path class="cls-2" d="m344.42,75.61h-2.63v4.1h-.77v-4.1h-2.63v-.77h6.02v.77Z"/>
      </g>
    </g>
  </g>
</svg>